<svg aria-hidden="true" style="position: absolute; width: 0; height: 0; overflow: hidden;" version="1.1" xmlns="http://www.w3.org/2000/svg" xmlns:xlink="http://www.w3.org/1999/xlink">
    <defs>
        <symbol id="icon-heart" viewBox="0 0 32 32">
            <path d="M14.113 29.262l-0.156-0.144-10.95-10.169c-1.919-1.781-3.006-4.281-3.006-6.9v-0.206c0-4.4 3.125-8.175 7.45-9 2.463-0.475 4.981 0.094 6.987 1.506 0.563 0.4 1.088 0.862 1.563 1.394 0.262-0.3 0.544-0.575 0.844-0.831 0.231-0.2 0.469-0.388 0.719-0.563 0 0 0 0 0 0 2.006-1.413 4.525-1.981 6.988-1.513 4.325 0.825 7.45 4.606 7.45 9.006v0.206c0 2.619-1.087 5.119-3.006 6.9l-11.106 10.313c-0.512 0.475-1.188 0.744-1.887 0.744s-1.375-0.262-1.887-0.744zM14.944 9.063c-0.025-0.019-0.044-0.044-0.063-0.069l-1.119-1.256s0 0 0 0c-1.444-1.619-3.625-2.356-5.75-1.95-2.912 0.556-5.013 3.094-5.013 6.056v0.206c0 1.781 0.744 3.488 2.050 4.7l10.95 10.169 10.95-10.169c1.306-1.213 2.050-2.919 2.050-4.7v-0.206c0-2.956-2.1-5.5-5.006-6.056-2.125-0.406-4.313 0.338-5.75 1.95 0 0 0 0-0.006 0.006s0 0-0.006 0.006l-1.113 1.25c-0.019 0.025-0.044 0.044-0.063 0.069-0.281 0.281-0.663 0.438-1.056 0.438s-0.775-0.156-1.056-0.438z"></path>
        </symbol>
        <symbol id="icon-heart-solid" viewBox="0 0 32 32">
            <path d="M2.975 18.775l11.294 10.544c0.469 0.438 1.088 0.681 1.731 0.681s1.263-0.244 1.731-0.681l11.294-10.544c1.9-1.769 2.975-4.25 2.975-6.844v-0.363c0-4.369-3.156-8.094-7.462-8.813-2.85-0.475-5.75 0.456-7.788 2.494l-0.75 0.75-0.75-0.75c-2.037-2.038-4.938-2.969-7.787-2.494-4.306 0.719-7.463 4.444-7.463 8.813v0.363c0 2.594 1.075 5.075 2.975 6.844z"></path>
        </symbol>
        <symbol id="icon-minus" viewBox="0 0 28 32">
            <path d="M27 16c0 1.106-0.894 2-2 2h-22c-1.106 0-2-0.894-2-2s0.894-2 2-2h22c1.106 0 2 0.894 2 2z"></path>
        </symbol>
        <symbol id="icon-plus" viewBox="0 0 28 32">
            <path d="M16 5c0-1.106-0.894-2-2-2s-2 0.894-2 2v9h-9c-1.106 0-2 0.894-2 2s0.894 2 2 2h9v9c0 1.106 0.894 2 2 2s2-0.894 2-2v-9h9c1.106 0 2-0.894 2-2s-0.894-2-2-2h-9v-9z"></path>
        </symbol>
    </defs>
</svg>
